<mxfile host="app.diagrams.net" modified="2023-01-04T07:55:22.750Z" agent="5.0 (X11; Linux x86_64) AppleWebKit/537.36 (KHTML, like Gecko) Chrome/108.0.0.0 Safari/537.36" version="20.7.4" etag="zNLtujueflwjYyf5E2pe" type="github" pages="2">
  <diagram id="mzMMo8h8TUTkv4iJsmjO" name="db design">
    <mxGraphModel dx="1600" dy="775" grid="1" gridSize="10" guides="1" tooltips="1" connect="1" arrows="1" fold="1" page="1" pageScale="1" pageWidth="827" pageHeight="1169" math="0" shadow="0">
      <root>
        <mxCell id="0" />
        <mxCell id="1" parent="0" />
        <mxCell id="9d-K32LOyO68Wn_iscek-1" value="" style="shape=table;startSize=0;container=1;collapsible=0;childLayout=tableLayout;" vertex="1" parent="1">
          <mxGeometry x="440" y="280" width="814" height="95" as="geometry" />
        </mxCell>
        <mxCell id="9d-K32LOyO68Wn_iscek-2" value="" style="shape=tableRow;horizontal=0;startSize=0;swimlaneHead=0;swimlaneBody=0;top=0;left=0;bottom=0;right=0;collapsible=0;dropTarget=0;fillColor=none;points=[[0,0.5],[1,0.5]];portConstraint=eastwest;" vertex="1" parent="9d-K32LOyO68Wn_iscek-1">
          <mxGeometry width="814" height="50" as="geometry" />
        </mxCell>
        <mxCell id="9d-K32LOyO68Wn_iscek-3" value="&lt;font style=&quot;font-size: 24px;&quot;&gt;id&lt;/font&gt;" style="shape=partialRectangle;html=1;whiteSpace=wrap;connectable=0;overflow=hidden;fillColor=none;top=0;left=0;bottom=0;right=0;pointerEvents=1;" vertex="1" parent="9d-K32LOyO68Wn_iscek-2">
          <mxGeometry width="164" height="50" as="geometry">
            <mxRectangle width="164" height="50" as="alternateBounds" />
          </mxGeometry>
        </mxCell>
        <mxCell id="9d-K32LOyO68Wn_iscek-4" value="&lt;font style=&quot;font-size: 24px;&quot;&gt;racename&lt;/font&gt;" style="shape=partialRectangle;html=1;whiteSpace=wrap;connectable=0;overflow=hidden;fillColor=none;top=0;left=0;bottom=0;right=0;pointerEvents=1;" vertex="1" parent="9d-K32LOyO68Wn_iscek-2">
          <mxGeometry x="164" width="164" height="50" as="geometry">
            <mxRectangle width="164" height="50" as="alternateBounds" />
          </mxGeometry>
        </mxCell>
        <mxCell id="9d-K32LOyO68Wn_iscek-5" value="&lt;font style=&quot;font-size: 24px;&quot;&gt;area&lt;/font&gt;" style="shape=partialRectangle;html=1;whiteSpace=wrap;connectable=0;overflow=hidden;fillColor=none;top=0;left=0;bottom=0;right=0;pointerEvents=1;" vertex="1" parent="9d-K32LOyO68Wn_iscek-2">
          <mxGeometry x="328" width="161" height="50" as="geometry">
            <mxRectangle width="161" height="50" as="alternateBounds" />
          </mxGeometry>
        </mxCell>
        <mxCell id="9d-K32LOyO68Wn_iscek-6" value="&lt;font style=&quot;font-size: 24px;&quot;&gt;gpxfilename&lt;/font&gt;" style="shape=partialRectangle;html=1;whiteSpace=wrap;connectable=0;overflow=hidden;fillColor=none;top=0;left=0;bottom=0;right=0;pointerEvents=1;" vertex="1" parent="9d-K32LOyO68Wn_iscek-2">
          <mxGeometry x="489" width="164" height="50" as="geometry">
            <mxRectangle width="164" height="50" as="alternateBounds" />
          </mxGeometry>
        </mxCell>
        <mxCell id="9d-K32LOyO68Wn_iscek-7" value="&lt;font style=&quot;font-size: 24px;&quot;&gt;gpxfilepath&lt;/font&gt;" style="shape=partialRectangle;html=1;whiteSpace=wrap;connectable=0;overflow=hidden;fillColor=none;top=0;left=0;bottom=0;right=0;pointerEvents=1;" vertex="1" parent="9d-K32LOyO68Wn_iscek-2">
          <mxGeometry x="653" width="161" height="50" as="geometry">
            <mxRectangle width="161" height="50" as="alternateBounds" />
          </mxGeometry>
        </mxCell>
        <mxCell id="9d-K32LOyO68Wn_iscek-8" value="" style="shape=tableRow;horizontal=0;startSize=0;swimlaneHead=0;swimlaneBody=0;top=0;left=0;bottom=0;right=0;collapsible=0;dropTarget=0;fillColor=none;points=[[0,0.5],[1,0.5]];portConstraint=eastwest;" vertex="1" parent="9d-K32LOyO68Wn_iscek-1">
          <mxGeometry y="50" width="814" height="45" as="geometry" />
        </mxCell>
        <mxCell id="9d-K32LOyO68Wn_iscek-9" value="&lt;font style=&quot;font-size: 24px;&quot;&gt;default&lt;/font&gt;" style="shape=partialRectangle;html=1;whiteSpace=wrap;connectable=0;overflow=hidden;fillColor=none;top=0;left=0;bottom=0;right=0;pointerEvents=1;" vertex="1" parent="9d-K32LOyO68Wn_iscek-8">
          <mxGeometry width="164" height="45" as="geometry">
            <mxRectangle width="164" height="45" as="alternateBounds" />
          </mxGeometry>
        </mxCell>
        <mxCell id="9d-K32LOyO68Wn_iscek-10" value="&lt;font style=&quot;font-size: 24px;&quot;&gt;varchar&lt;/font&gt;" style="shape=partialRectangle;html=1;whiteSpace=wrap;connectable=0;overflow=hidden;fillColor=none;top=0;left=0;bottom=0;right=0;pointerEvents=1;" vertex="1" parent="9d-K32LOyO68Wn_iscek-8">
          <mxGeometry x="164" width="164" height="45" as="geometry">
            <mxRectangle width="164" height="45" as="alternateBounds" />
          </mxGeometry>
        </mxCell>
        <mxCell id="9d-K32LOyO68Wn_iscek-11" value="&lt;font style=&quot;font-size: 24px;&quot;&gt;varchar&lt;/font&gt;" style="shape=partialRectangle;html=1;whiteSpace=wrap;connectable=0;overflow=hidden;fillColor=none;top=0;left=0;bottom=0;right=0;pointerEvents=1;" vertex="1" parent="9d-K32LOyO68Wn_iscek-8">
          <mxGeometry x="328" width="161" height="45" as="geometry">
            <mxRectangle width="161" height="45" as="alternateBounds" />
          </mxGeometry>
        </mxCell>
        <mxCell id="9d-K32LOyO68Wn_iscek-12" value="&lt;font style=&quot;font-size: 24px;&quot;&gt;varchar&lt;/font&gt;" style="shape=partialRectangle;html=1;whiteSpace=wrap;connectable=0;overflow=hidden;fillColor=none;top=0;left=0;bottom=0;right=0;pointerEvents=1;" vertex="1" parent="9d-K32LOyO68Wn_iscek-8">
          <mxGeometry x="489" width="164" height="45" as="geometry">
            <mxRectangle width="164" height="45" as="alternateBounds" />
          </mxGeometry>
        </mxCell>
        <mxCell id="9d-K32LOyO68Wn_iscek-13" value="&lt;font style=&quot;font-size: 24px;&quot;&gt;varchar&lt;/font&gt;" style="shape=partialRectangle;html=1;whiteSpace=wrap;connectable=0;overflow=hidden;fillColor=none;top=0;left=0;bottom=0;right=0;pointerEvents=1;" vertex="1" parent="9d-K32LOyO68Wn_iscek-8">
          <mxGeometry x="653" width="161" height="45" as="geometry">
            <mxRectangle width="161" height="45" as="alternateBounds" />
          </mxGeometry>
        </mxCell>
        <mxCell id="9d-K32LOyO68Wn_iscek-14" value="&lt;font style=&quot;font-size: 36px;&quot;&gt;t_race_gpxfiles&lt;/font&gt;" style="text;html=1;strokeColor=none;fillColor=none;align=center;verticalAlign=middle;whiteSpace=wrap;rounded=0;" vertex="1" parent="1">
          <mxGeometry x="700" y="230" width="160" height="30" as="geometry" />
        </mxCell>
        <mxCell id="9d-K32LOyO68Wn_iscek-15" value="" style="shape=table;startSize=0;container=1;collapsible=0;childLayout=tableLayout;fontSize=24;" vertex="1" parent="1">
          <mxGeometry x="440" y="520" width="1014" height="80" as="geometry" />
        </mxCell>
        <mxCell id="9d-K32LOyO68Wn_iscek-16" value="" style="shape=tableRow;horizontal=0;startSize=0;swimlaneHead=0;swimlaneBody=0;top=0;left=0;bottom=0;right=0;collapsible=0;dropTarget=0;fillColor=none;points=[[0,0.5],[1,0.5]];portConstraint=eastwest;fontSize=24;" vertex="1" parent="9d-K32LOyO68Wn_iscek-15">
          <mxGeometry width="1014" height="40" as="geometry" />
        </mxCell>
        <mxCell id="9d-K32LOyO68Wn_iscek-17" value="id" style="shape=partialRectangle;html=1;whiteSpace=wrap;connectable=0;overflow=hidden;fillColor=none;top=0;left=0;bottom=0;right=0;pointerEvents=1;fontSize=24;" vertex="1" parent="9d-K32LOyO68Wn_iscek-16">
          <mxGeometry width="203" height="40" as="geometry">
            <mxRectangle width="203" height="40" as="alternateBounds" />
          </mxGeometry>
        </mxCell>
        <mxCell id="9d-K32LOyO68Wn_iscek-18" value="racename" style="shape=partialRectangle;html=1;whiteSpace=wrap;connectable=0;overflow=hidden;fillColor=none;top=0;left=0;bottom=0;right=0;pointerEvents=1;fontSize=24;" vertex="1" parent="9d-K32LOyO68Wn_iscek-16">
          <mxGeometry x="203" width="203" height="40" as="geometry">
            <mxRectangle width="203" height="40" as="alternateBounds" />
          </mxGeometry>
        </mxCell>
        <mxCell id="9d-K32LOyO68Wn_iscek-19" value="rank" style="shape=partialRectangle;html=1;whiteSpace=wrap;connectable=0;overflow=hidden;fillColor=none;top=0;left=0;bottom=0;right=0;pointerEvents=1;fontSize=24;" vertex="1" parent="9d-K32LOyO68Wn_iscek-16">
          <mxGeometry x="406" width="203" height="40" as="geometry">
            <mxRectangle width="203" height="40" as="alternateBounds" />
          </mxGeometry>
        </mxCell>
        <mxCell id="9d-K32LOyO68Wn_iscek-20" value="gpxfilename" style="shape=partialRectangle;html=1;whiteSpace=wrap;connectable=0;overflow=hidden;fillColor=none;top=0;left=0;bottom=0;right=0;pointerEvents=1;fontSize=24;" vertex="1" parent="9d-K32LOyO68Wn_iscek-16">
          <mxGeometry x="609" width="202" height="40" as="geometry">
            <mxRectangle width="202" height="40" as="alternateBounds" />
          </mxGeometry>
        </mxCell>
        <mxCell id="9d-K32LOyO68Wn_iscek-21" value="arrivingtime" style="shape=partialRectangle;html=1;whiteSpace=wrap;connectable=0;overflow=hidden;fillColor=none;top=0;left=0;bottom=0;right=0;pointerEvents=1;fontSize=24;" vertex="1" parent="9d-K32LOyO68Wn_iscek-16">
          <mxGeometry x="811" width="203" height="40" as="geometry">
            <mxRectangle width="203" height="40" as="alternateBounds" />
          </mxGeometry>
        </mxCell>
        <mxCell id="9d-K32LOyO68Wn_iscek-22" value="" style="shape=tableRow;horizontal=0;startSize=0;swimlaneHead=0;swimlaneBody=0;top=0;left=0;bottom=0;right=0;collapsible=0;dropTarget=0;fillColor=none;points=[[0,0.5],[1,0.5]];portConstraint=eastwest;fontSize=24;" vertex="1" parent="9d-K32LOyO68Wn_iscek-15">
          <mxGeometry y="40" width="1014" height="40" as="geometry" />
        </mxCell>
        <mxCell id="9d-K32LOyO68Wn_iscek-23" value="&lt;font style=&quot;font-size: 24px;&quot;&gt;default&lt;/font&gt;" style="shape=partialRectangle;html=1;whiteSpace=wrap;connectable=0;overflow=hidden;fillColor=none;top=0;left=0;bottom=0;right=0;pointerEvents=1;fontSize=24;" vertex="1" parent="9d-K32LOyO68Wn_iscek-22">
          <mxGeometry width="203" height="40" as="geometry">
            <mxRectangle width="203" height="40" as="alternateBounds" />
          </mxGeometry>
        </mxCell>
        <mxCell id="9d-K32LOyO68Wn_iscek-24" value="&lt;font style=&quot;font-size: 24px;&quot;&gt;varchar&lt;/font&gt;" style="shape=partialRectangle;html=1;whiteSpace=wrap;connectable=0;overflow=hidden;fillColor=none;top=0;left=0;bottom=0;right=0;pointerEvents=1;fontSize=24;" vertex="1" parent="9d-K32LOyO68Wn_iscek-22">
          <mxGeometry x="203" width="203" height="40" as="geometry">
            <mxRectangle width="203" height="40" as="alternateBounds" />
          </mxGeometry>
        </mxCell>
        <mxCell id="9d-K32LOyO68Wn_iscek-25" value="int" style="shape=partialRectangle;html=1;whiteSpace=wrap;connectable=0;overflow=hidden;fillColor=none;top=0;left=0;bottom=0;right=0;pointerEvents=1;fontSize=24;" vertex="1" parent="9d-K32LOyO68Wn_iscek-22">
          <mxGeometry x="406" width="203" height="40" as="geometry">
            <mxRectangle width="203" height="40" as="alternateBounds" />
          </mxGeometry>
        </mxCell>
        <mxCell id="9d-K32LOyO68Wn_iscek-26" value="&lt;font style=&quot;font-size: 24px;&quot;&gt;varchar&lt;/font&gt;" style="shape=partialRectangle;html=1;whiteSpace=wrap;connectable=0;overflow=hidden;fillColor=none;top=0;left=0;bottom=0;right=0;pointerEvents=1;fontSize=24;" vertex="1" parent="9d-K32LOyO68Wn_iscek-22">
          <mxGeometry x="609" width="202" height="40" as="geometry">
            <mxRectangle width="202" height="40" as="alternateBounds" />
          </mxGeometry>
        </mxCell>
        <mxCell id="9d-K32LOyO68Wn_iscek-27" value="date" style="shape=partialRectangle;html=1;whiteSpace=wrap;connectable=0;overflow=hidden;fillColor=none;top=0;left=0;bottom=0;right=0;pointerEvents=1;fontSize=24;" vertex="1" parent="9d-K32LOyO68Wn_iscek-22">
          <mxGeometry x="811" width="203" height="40" as="geometry">
            <mxRectangle width="203" height="40" as="alternateBounds" />
          </mxGeometry>
        </mxCell>
        <mxCell id="9d-K32LOyO68Wn_iscek-28" value="&lt;font style=&quot;font-size: 36px;&quot;&gt;t_race_rank&lt;/font&gt;" style="text;html=1;strokeColor=none;fillColor=none;align=center;verticalAlign=middle;whiteSpace=wrap;rounded=0;" vertex="1" parent="1">
          <mxGeometry x="710" y="470" width="160" height="30" as="geometry" />
        </mxCell>
        <mxCell id="9d-K32LOyO68Wn_iscek-29" value="" style="shape=table;startSize=0;container=1;collapsible=0;childLayout=tableLayout;" vertex="1" parent="1">
          <mxGeometry x="434" y="735" width="1020" height="80" as="geometry" />
        </mxCell>
        <mxCell id="9d-K32LOyO68Wn_iscek-30" value="" style="shape=tableRow;horizontal=0;startSize=0;swimlaneHead=0;swimlaneBody=0;top=0;left=0;bottom=0;right=0;collapsible=0;dropTarget=0;fillColor=none;points=[[0,0.5],[1,0.5]];portConstraint=eastwest;" vertex="1" parent="9d-K32LOyO68Wn_iscek-29">
          <mxGeometry width="1020" height="40" as="geometry" />
        </mxCell>
        <mxCell id="9d-K32LOyO68Wn_iscek-31" value="&lt;font style=&quot;font-size: 24px;&quot;&gt;id&lt;/font&gt;" style="shape=partialRectangle;html=1;whiteSpace=wrap;connectable=0;overflow=hidden;fillColor=none;top=0;left=0;bottom=0;right=0;pointerEvents=1;" vertex="1" parent="9d-K32LOyO68Wn_iscek-30">
          <mxGeometry width="146" height="40" as="geometry">
            <mxRectangle width="146" height="40" as="alternateBounds" />
          </mxGeometry>
        </mxCell>
        <mxCell id="9d-K32LOyO68Wn_iscek-32" value="&lt;font style=&quot;font-size: 24px;&quot;&gt;racename&lt;/font&gt;" style="shape=partialRectangle;html=1;whiteSpace=wrap;connectable=0;overflow=hidden;fillColor=none;top=0;left=0;bottom=0;right=0;pointerEvents=1;" vertex="1" parent="9d-K32LOyO68Wn_iscek-30">
          <mxGeometry x="146" width="145" height="40" as="geometry">
            <mxRectangle width="145" height="40" as="alternateBounds" />
          </mxGeometry>
        </mxCell>
        <mxCell id="9d-K32LOyO68Wn_iscek-33" value="&lt;font style=&quot;font-size: 24px;&quot;&gt;start_lat&lt;/font&gt;" style="shape=partialRectangle;html=1;whiteSpace=wrap;connectable=0;overflow=hidden;fillColor=none;top=0;left=0;bottom=0;right=0;pointerEvents=1;" vertex="1" parent="9d-K32LOyO68Wn_iscek-30">
          <mxGeometry x="291" width="146" height="40" as="geometry">
            <mxRectangle width="146" height="40" as="alternateBounds" />
          </mxGeometry>
        </mxCell>
        <mxCell id="9d-K32LOyO68Wn_iscek-34" value="&lt;font style=&quot;font-size: 24px;&quot;&gt;start_lon&lt;/font&gt;" style="shape=partialRectangle;html=1;whiteSpace=wrap;connectable=0;overflow=hidden;fillColor=none;top=0;left=0;bottom=0;right=0;pointerEvents=1;" vertex="1" parent="9d-K32LOyO68Wn_iscek-30">
          <mxGeometry x="437" width="146" height="40" as="geometry">
            <mxRectangle width="146" height="40" as="alternateBounds" />
          </mxGeometry>
        </mxCell>
        <mxCell id="9d-K32LOyO68Wn_iscek-35" value="&lt;font style=&quot;font-size: 24px;&quot;&gt;end_lat&lt;/font&gt;" style="shape=partialRectangle;html=1;whiteSpace=wrap;connectable=0;overflow=hidden;fillColor=none;top=0;left=0;bottom=0;right=0;pointerEvents=1;" vertex="1" parent="9d-K32LOyO68Wn_iscek-30">
          <mxGeometry x="583" width="146" height="40" as="geometry">
            <mxRectangle width="146" height="40" as="alternateBounds" />
          </mxGeometry>
        </mxCell>
        <mxCell id="9d-K32LOyO68Wn_iscek-36" value="&lt;font style=&quot;font-size: 24px;&quot;&gt;end_lon&lt;/font&gt;" style="shape=partialRectangle;html=1;whiteSpace=wrap;connectable=0;overflow=hidden;fillColor=none;top=0;left=0;bottom=0;right=0;pointerEvents=1;" vertex="1" parent="9d-K32LOyO68Wn_iscek-30">
          <mxGeometry x="729" width="145" height="40" as="geometry">
            <mxRectangle width="145" height="40" as="alternateBounds" />
          </mxGeometry>
        </mxCell>
        <mxCell id="9d-K32LOyO68Wn_iscek-37" value="&lt;font style=&quot;font-size: 24px;&quot;&gt;starttime&lt;/font&gt;" style="shape=partialRectangle;html=1;whiteSpace=wrap;connectable=0;overflow=hidden;fillColor=none;top=0;left=0;bottom=0;right=0;pointerEvents=1;" vertex="1" parent="9d-K32LOyO68Wn_iscek-30">
          <mxGeometry x="874" width="146" height="40" as="geometry">
            <mxRectangle width="146" height="40" as="alternateBounds" />
          </mxGeometry>
        </mxCell>
        <mxCell id="9d-K32LOyO68Wn_iscek-38" value="" style="shape=tableRow;horizontal=0;startSize=0;swimlaneHead=0;swimlaneBody=0;top=0;left=0;bottom=0;right=0;collapsible=0;dropTarget=0;fillColor=none;points=[[0,0.5],[1,0.5]];portConstraint=eastwest;" vertex="1" parent="9d-K32LOyO68Wn_iscek-29">
          <mxGeometry y="40" width="1020" height="40" as="geometry" />
        </mxCell>
        <mxCell id="9d-K32LOyO68Wn_iscek-39" value="&lt;span style=&quot;font-size: 24px;&quot;&gt;default&lt;/span&gt;" style="shape=partialRectangle;html=1;whiteSpace=wrap;connectable=0;overflow=hidden;fillColor=none;top=0;left=0;bottom=0;right=0;pointerEvents=1;" vertex="1" parent="9d-K32LOyO68Wn_iscek-38">
          <mxGeometry width="146" height="40" as="geometry">
            <mxRectangle width="146" height="40" as="alternateBounds" />
          </mxGeometry>
        </mxCell>
        <mxCell id="9d-K32LOyO68Wn_iscek-40" value="&lt;span style=&quot;font-size: 24px;&quot;&gt;varchar&lt;/span&gt;" style="shape=partialRectangle;html=1;whiteSpace=wrap;connectable=0;overflow=hidden;fillColor=none;top=0;left=0;bottom=0;right=0;pointerEvents=1;" vertex="1" parent="9d-K32LOyO68Wn_iscek-38">
          <mxGeometry x="146" width="145" height="40" as="geometry">
            <mxRectangle width="145" height="40" as="alternateBounds" />
          </mxGeometry>
        </mxCell>
        <mxCell id="9d-K32LOyO68Wn_iscek-41" value="&lt;span style=&quot;font-size: 24px;&quot;&gt;real&lt;/span&gt;" style="shape=partialRectangle;html=1;whiteSpace=wrap;connectable=0;overflow=hidden;fillColor=none;top=0;left=0;bottom=0;right=0;pointerEvents=1;" vertex="1" parent="9d-K32LOyO68Wn_iscek-38">
          <mxGeometry x="291" width="146" height="40" as="geometry">
            <mxRectangle width="146" height="40" as="alternateBounds" />
          </mxGeometry>
        </mxCell>
        <mxCell id="9d-K32LOyO68Wn_iscek-42" value="&lt;span style=&quot;font-size: 24px;&quot;&gt;real&lt;/span&gt;" style="shape=partialRectangle;html=1;whiteSpace=wrap;connectable=0;overflow=hidden;fillColor=none;top=0;left=0;bottom=0;right=0;pointerEvents=1;" vertex="1" parent="9d-K32LOyO68Wn_iscek-38">
          <mxGeometry x="437" width="146" height="40" as="geometry">
            <mxRectangle width="146" height="40" as="alternateBounds" />
          </mxGeometry>
        </mxCell>
        <mxCell id="9d-K32LOyO68Wn_iscek-43" value="&lt;span style=&quot;font-size: 24px;&quot;&gt;real&lt;/span&gt;" style="shape=partialRectangle;html=1;whiteSpace=wrap;connectable=0;overflow=hidden;fillColor=none;top=0;left=0;bottom=0;right=0;pointerEvents=1;" vertex="1" parent="9d-K32LOyO68Wn_iscek-38">
          <mxGeometry x="583" width="146" height="40" as="geometry">
            <mxRectangle width="146" height="40" as="alternateBounds" />
          </mxGeometry>
        </mxCell>
        <mxCell id="9d-K32LOyO68Wn_iscek-44" value="&lt;span style=&quot;font-size: 24px;&quot;&gt;real&lt;/span&gt;" style="shape=partialRectangle;html=1;whiteSpace=wrap;connectable=0;overflow=hidden;fillColor=none;top=0;left=0;bottom=0;right=0;pointerEvents=1;" vertex="1" parent="9d-K32LOyO68Wn_iscek-38">
          <mxGeometry x="729" width="145" height="40" as="geometry">
            <mxRectangle width="145" height="40" as="alternateBounds" />
          </mxGeometry>
        </mxCell>
        <mxCell id="9d-K32LOyO68Wn_iscek-45" value="&lt;span style=&quot;font-size: 24px;&quot;&gt;varchar&lt;/span&gt;" style="shape=partialRectangle;html=1;whiteSpace=wrap;connectable=0;overflow=hidden;fillColor=none;top=0;left=0;bottom=0;right=0;pointerEvents=1;" vertex="1" parent="9d-K32LOyO68Wn_iscek-38">
          <mxGeometry x="874" width="146" height="40" as="geometry">
            <mxRectangle width="146" height="40" as="alternateBounds" />
          </mxGeometry>
        </mxCell>
        <mxCell id="9d-K32LOyO68Wn_iscek-46" value="&lt;font style=&quot;font-size: 36px;&quot;&gt;t_race_info&lt;/font&gt;" style="text;html=1;strokeColor=none;fillColor=none;align=center;verticalAlign=middle;whiteSpace=wrap;rounded=0;" vertex="1" parent="1">
          <mxGeometry x="780" y="690" width="340" height="30" as="geometry" />
        </mxCell>
        <mxCell id="9d-K32LOyO68Wn_iscek-47" value="" style="shape=table;startSize=0;container=1;collapsible=0;childLayout=tableLayout;fontSize=24;" vertex="1" parent="1">
          <mxGeometry x="270" y="910" width="1480" height="80" as="geometry" />
        </mxCell>
        <mxCell id="9d-K32LOyO68Wn_iscek-48" value="" style="shape=tableRow;horizontal=0;startSize=0;swimlaneHead=0;swimlaneBody=0;top=0;left=0;bottom=0;right=0;collapsible=0;dropTarget=0;fillColor=none;points=[[0,0.5],[1,0.5]];portConstraint=eastwest;fontSize=24;" vertex="1" parent="9d-K32LOyO68Wn_iscek-47">
          <mxGeometry width="1480" height="40" as="geometry" />
        </mxCell>
        <mxCell id="9d-K32LOyO68Wn_iscek-49" value="id" style="shape=partialRectangle;html=1;whiteSpace=wrap;connectable=0;overflow=hidden;fillColor=none;top=0;left=0;bottom=0;right=0;pointerEvents=1;fontSize=24;" vertex="1" parent="9d-K32LOyO68Wn_iscek-48">
          <mxGeometry width="135" height="40" as="geometry">
            <mxRectangle width="135" height="40" as="alternateBounds" />
          </mxGeometry>
        </mxCell>
        <mxCell id="9d-K32LOyO68Wn_iscek-50" value="gpxfilename" style="shape=partialRectangle;html=1;whiteSpace=wrap;connectable=0;overflow=hidden;fillColor=none;top=0;left=0;bottom=0;right=0;pointerEvents=1;fontSize=24;" vertex="1" parent="9d-K32LOyO68Wn_iscek-48">
          <mxGeometry x="135" width="134" height="40" as="geometry">
            <mxRectangle width="134" height="40" as="alternateBounds" />
          </mxGeometry>
        </mxCell>
        <mxCell id="9d-K32LOyO68Wn_iscek-51" value="count" style="shape=partialRectangle;html=1;whiteSpace=wrap;connectable=0;overflow=hidden;fillColor=none;top=0;left=0;bottom=0;right=0;pointerEvents=1;fontSize=24;" vertex="1" parent="9d-K32LOyO68Wn_iscek-48">
          <mxGeometry x="269" width="135" height="40" as="geometry">
            <mxRectangle width="135" height="40" as="alternateBounds" />
          </mxGeometry>
        </mxCell>
        <mxCell id="9d-K32LOyO68Wn_iscek-52" value="lat" style="shape=partialRectangle;html=1;whiteSpace=wrap;connectable=0;overflow=hidden;fillColor=none;top=0;left=0;bottom=0;right=0;pointerEvents=1;fontSize=24;" vertex="1" parent="9d-K32LOyO68Wn_iscek-48">
          <mxGeometry x="404" width="135" height="40" as="geometry">
            <mxRectangle width="135" height="40" as="alternateBounds" />
          </mxGeometry>
        </mxCell>
        <mxCell id="9d-K32LOyO68Wn_iscek-53" value="lon" style="shape=partialRectangle;html=1;whiteSpace=wrap;connectable=0;overflow=hidden;fillColor=none;top=0;left=0;bottom=0;right=0;pointerEvents=1;fontSize=24;" vertex="1" parent="9d-K32LOyO68Wn_iscek-48">
          <mxGeometry x="539" width="133" height="40" as="geometry">
            <mxRectangle width="133" height="40" as="alternateBounds" />
          </mxGeometry>
        </mxCell>
        <mxCell id="9d-K32LOyO68Wn_iscek-54" value="fix" style="shape=partialRectangle;html=1;whiteSpace=wrap;connectable=0;overflow=hidden;fillColor=none;top=0;left=0;bottom=0;right=0;pointerEvents=1;fontSize=24;" vertex="1" parent="9d-K32LOyO68Wn_iscek-48">
          <mxGeometry x="672" width="136" height="40" as="geometry">
            <mxRectangle width="136" height="40" as="alternateBounds" />
          </mxGeometry>
        </mxCell>
        <mxCell id="9d-K32LOyO68Wn_iscek-55" value="time" style="shape=partialRectangle;html=1;whiteSpace=wrap;connectable=0;overflow=hidden;fillColor=none;top=0;left=0;bottom=0;right=0;pointerEvents=1;fontSize=24;" vertex="1" parent="9d-K32LOyO68Wn_iscek-48">
          <mxGeometry x="808" width="133" height="40" as="geometry">
            <mxRectangle width="133" height="40" as="alternateBounds" />
          </mxGeometry>
        </mxCell>
        <mxCell id="9d-K32LOyO68Wn_iscek-56" value="ele" style="shape=partialRectangle;html=1;whiteSpace=wrap;connectable=0;overflow=hidden;fillColor=none;top=0;left=0;bottom=0;right=0;pointerEvents=1;fontSize=24;" vertex="1" parent="9d-K32LOyO68Wn_iscek-48">
          <mxGeometry x="941" width="135" height="40" as="geometry">
            <mxRectangle width="135" height="40" as="alternateBounds" />
          </mxGeometry>
        </mxCell>
        <mxCell id="9d-K32LOyO68Wn_iscek-57" value="speed" style="shape=partialRectangle;html=1;whiteSpace=wrap;connectable=0;overflow=hidden;fillColor=none;top=0;left=0;bottom=0;right=0;pointerEvents=1;fontSize=24;" vertex="1" parent="9d-K32LOyO68Wn_iscek-48">
          <mxGeometry x="1076" width="135" height="40" as="geometry">
            <mxRectangle width="135" height="40" as="alternateBounds" />
          </mxGeometry>
        </mxCell>
        <mxCell id="9d-K32LOyO68Wn_iscek-58" value="heading" style="shape=partialRectangle;html=1;whiteSpace=wrap;connectable=0;overflow=hidden;fillColor=none;top=0;left=0;bottom=0;right=0;pointerEvents=1;fontSize=24;" vertex="1" parent="9d-K32LOyO68Wn_iscek-48">
          <mxGeometry x="1211" width="134" height="40" as="geometry">
            <mxRectangle width="134" height="40" as="alternateBounds" />
          </mxGeometry>
        </mxCell>
        <mxCell id="9d-K32LOyO68Wn_iscek-59" value="distance" style="shape=partialRectangle;html=1;whiteSpace=wrap;connectable=0;overflow=hidden;fillColor=none;top=0;left=0;bottom=0;right=0;pointerEvents=1;fontSize=24;" vertex="1" parent="9d-K32LOyO68Wn_iscek-48">
          <mxGeometry x="1345" width="135" height="40" as="geometry">
            <mxRectangle width="135" height="40" as="alternateBounds" />
          </mxGeometry>
        </mxCell>
        <mxCell id="9d-K32LOyO68Wn_iscek-60" value="" style="shape=tableRow;horizontal=0;startSize=0;swimlaneHead=0;swimlaneBody=0;top=0;left=0;bottom=0;right=0;collapsible=0;dropTarget=0;fillColor=none;points=[[0,0.5],[1,0.5]];portConstraint=eastwest;fontSize=24;" vertex="1" parent="9d-K32LOyO68Wn_iscek-47">
          <mxGeometry y="40" width="1480" height="40" as="geometry" />
        </mxCell>
        <mxCell id="9d-K32LOyO68Wn_iscek-61" value="default" style="shape=partialRectangle;html=1;whiteSpace=wrap;connectable=0;overflow=hidden;fillColor=none;top=0;left=0;bottom=0;right=0;pointerEvents=1;fontSize=24;" vertex="1" parent="9d-K32LOyO68Wn_iscek-60">
          <mxGeometry width="135" height="40" as="geometry">
            <mxRectangle width="135" height="40" as="alternateBounds" />
          </mxGeometry>
        </mxCell>
        <mxCell id="9d-K32LOyO68Wn_iscek-62" value="varchar" style="shape=partialRectangle;html=1;whiteSpace=wrap;connectable=0;overflow=hidden;fillColor=none;top=0;left=0;bottom=0;right=0;pointerEvents=1;fontSize=24;" vertex="1" parent="9d-K32LOyO68Wn_iscek-60">
          <mxGeometry x="135" width="134" height="40" as="geometry">
            <mxRectangle width="134" height="40" as="alternateBounds" />
          </mxGeometry>
        </mxCell>
        <mxCell id="9d-K32LOyO68Wn_iscek-63" value="int" style="shape=partialRectangle;html=1;whiteSpace=wrap;connectable=0;overflow=hidden;fillColor=none;top=0;left=0;bottom=0;right=0;pointerEvents=1;fontSize=24;" vertex="1" parent="9d-K32LOyO68Wn_iscek-60">
          <mxGeometry x="269" width="135" height="40" as="geometry">
            <mxRectangle width="135" height="40" as="alternateBounds" />
          </mxGeometry>
        </mxCell>
        <mxCell id="9d-K32LOyO68Wn_iscek-64" value="text" style="shape=partialRectangle;html=1;whiteSpace=wrap;connectable=0;overflow=hidden;fillColor=none;top=0;left=0;bottom=0;right=0;pointerEvents=1;fontSize=24;" vertex="1" parent="9d-K32LOyO68Wn_iscek-60">
          <mxGeometry x="404" width="135" height="40" as="geometry">
            <mxRectangle width="135" height="40" as="alternateBounds" />
          </mxGeometry>
        </mxCell>
        <mxCell id="9d-K32LOyO68Wn_iscek-65" value="text" style="shape=partialRectangle;html=1;whiteSpace=wrap;connectable=0;overflow=hidden;fillColor=none;top=0;left=0;bottom=0;right=0;pointerEvents=1;fontSize=24;" vertex="1" parent="9d-K32LOyO68Wn_iscek-60">
          <mxGeometry x="539" width="133" height="40" as="geometry">
            <mxRectangle width="133" height="40" as="alternateBounds" />
          </mxGeometry>
        </mxCell>
        <mxCell id="9d-K32LOyO68Wn_iscek-66" value="text" style="shape=partialRectangle;html=1;whiteSpace=wrap;connectable=0;overflow=hidden;fillColor=none;top=0;left=0;bottom=0;right=0;pointerEvents=1;fontSize=24;" vertex="1" parent="9d-K32LOyO68Wn_iscek-60">
          <mxGeometry x="672" width="136" height="40" as="geometry">
            <mxRectangle width="136" height="40" as="alternateBounds" />
          </mxGeometry>
        </mxCell>
        <mxCell id="9d-K32LOyO68Wn_iscek-67" value="text" style="shape=partialRectangle;html=1;whiteSpace=wrap;connectable=0;overflow=hidden;fillColor=none;top=0;left=0;bottom=0;right=0;pointerEvents=1;fontSize=24;" vertex="1" parent="9d-K32LOyO68Wn_iscek-60">
          <mxGeometry x="808" width="133" height="40" as="geometry">
            <mxRectangle width="133" height="40" as="alternateBounds" />
          </mxGeometry>
        </mxCell>
        <mxCell id="9d-K32LOyO68Wn_iscek-68" value="real" style="shape=partialRectangle;html=1;whiteSpace=wrap;connectable=0;overflow=hidden;fillColor=none;top=0;left=0;bottom=0;right=0;pointerEvents=1;fontSize=24;" vertex="1" parent="9d-K32LOyO68Wn_iscek-60">
          <mxGeometry x="941" width="135" height="40" as="geometry">
            <mxRectangle width="135" height="40" as="alternateBounds" />
          </mxGeometry>
        </mxCell>
        <mxCell id="9d-K32LOyO68Wn_iscek-69" value="real" style="shape=partialRectangle;html=1;whiteSpace=wrap;connectable=0;overflow=hidden;fillColor=none;top=0;left=0;bottom=0;right=0;pointerEvents=1;fontSize=24;" vertex="1" parent="9d-K32LOyO68Wn_iscek-60">
          <mxGeometry x="1076" width="135" height="40" as="geometry">
            <mxRectangle width="135" height="40" as="alternateBounds" />
          </mxGeometry>
        </mxCell>
        <mxCell id="9d-K32LOyO68Wn_iscek-70" value="real" style="shape=partialRectangle;html=1;whiteSpace=wrap;connectable=0;overflow=hidden;fillColor=none;top=0;left=0;bottom=0;right=0;pointerEvents=1;fontSize=24;" vertex="1" parent="9d-K32LOyO68Wn_iscek-60">
          <mxGeometry x="1211" width="134" height="40" as="geometry">
            <mxRectangle width="134" height="40" as="alternateBounds" />
          </mxGeometry>
        </mxCell>
        <mxCell id="9d-K32LOyO68Wn_iscek-71" value="real" style="shape=partialRectangle;html=1;whiteSpace=wrap;connectable=0;overflow=hidden;fillColor=none;top=0;left=0;bottom=0;right=0;pointerEvents=1;fontSize=24;" vertex="1" parent="9d-K32LOyO68Wn_iscek-60">
          <mxGeometry x="1345" width="135" height="40" as="geometry">
            <mxRectangle width="135" height="40" as="alternateBounds" />
          </mxGeometry>
        </mxCell>
        <mxCell id="9d-K32LOyO68Wn_iscek-72" value="&lt;font style=&quot;font-size: 36px;&quot;&gt;t_race_gpxfiles_rows&lt;/font&gt;" style="text;html=1;strokeColor=none;fillColor=none;align=center;verticalAlign=middle;whiteSpace=wrap;rounded=0;" vertex="1" parent="1">
          <mxGeometry x="840" y="860" width="340" height="30" as="geometry" />
        </mxCell>
        <mxCell id="9d-K32LOyO68Wn_iscek-73" value="" style="shape=table;startSize=0;container=1;collapsible=0;childLayout=tableLayout;fontSize=24;" vertex="1" parent="1">
          <mxGeometry x="450" y="1130" width="1014" height="120" as="geometry" />
        </mxCell>
        <mxCell id="9d-K32LOyO68Wn_iscek-74" value="" style="shape=tableRow;horizontal=0;startSize=0;swimlaneHead=0;swimlaneBody=0;top=0;left=0;bottom=0;right=0;collapsible=0;dropTarget=0;fillColor=none;points=[[0,0.5],[1,0.5]];portConstraint=eastwest;fontSize=24;" vertex="1" parent="9d-K32LOyO68Wn_iscek-73">
          <mxGeometry width="1014" height="40" as="geometry" />
        </mxCell>
        <mxCell id="9d-K32LOyO68Wn_iscek-75" value="id" style="shape=partialRectangle;html=1;whiteSpace=wrap;connectable=0;overflow=hidden;fillColor=none;top=0;left=0;bottom=0;right=0;pointerEvents=1;fontSize=24;" vertex="1" parent="9d-K32LOyO68Wn_iscek-74">
          <mxGeometry width="203" height="40" as="geometry">
            <mxRectangle width="203" height="40" as="alternateBounds" />
          </mxGeometry>
        </mxCell>
        <mxCell id="9d-K32LOyO68Wn_iscek-76" value="racename" style="shape=partialRectangle;html=1;whiteSpace=wrap;connectable=0;overflow=hidden;fillColor=none;top=0;left=0;bottom=0;right=0;pointerEvents=1;fontSize=24;" vertex="1" parent="9d-K32LOyO68Wn_iscek-74">
          <mxGeometry x="203" width="203" height="40" as="geometry">
            <mxRectangle width="203" height="40" as="alternateBounds" />
          </mxGeometry>
        </mxCell>
        <mxCell id="9d-K32LOyO68Wn_iscek-77" value="gpxfilename" style="shape=partialRectangle;html=1;whiteSpace=wrap;connectable=0;overflow=hidden;fillColor=none;top=0;left=0;bottom=0;right=0;pointerEvents=1;fontSize=24;" vertex="1" parent="9d-K32LOyO68Wn_iscek-74">
          <mxGeometry x="406" width="203" height="40" as="geometry">
            <mxRectangle width="203" height="40" as="alternateBounds" />
          </mxGeometry>
        </mxCell>
        <mxCell id="9d-K32LOyO68Wn_iscek-78" value="straightspeed" style="shape=partialRectangle;html=1;whiteSpace=wrap;connectable=0;overflow=hidden;fillColor=none;top=0;left=0;bottom=0;right=0;pointerEvents=1;fontSize=24;" vertex="1" parent="9d-K32LOyO68Wn_iscek-74">
          <mxGeometry x="609" width="202" height="40" as="geometry">
            <mxRectangle width="202" height="40" as="alternateBounds" />
          </mxGeometry>
        </mxCell>
        <mxCell id="9d-K32LOyO68Wn_iscek-79" value="routeefficiency" style="shape=partialRectangle;html=1;whiteSpace=wrap;connectable=0;overflow=hidden;fillColor=none;top=0;left=0;bottom=0;right=0;pointerEvents=1;fontSize=24;" vertex="1" parent="9d-K32LOyO68Wn_iscek-74">
          <mxGeometry x="811" width="203" height="40" as="geometry">
            <mxRectangle width="203" height="40" as="alternateBounds" />
          </mxGeometry>
        </mxCell>
        <mxCell id="9d-K32LOyO68Wn_iscek-80" value="" style="shape=tableRow;horizontal=0;startSize=0;swimlaneHead=0;swimlaneBody=0;top=0;left=0;bottom=0;right=0;collapsible=0;dropTarget=0;fillColor=none;points=[[0,0.5],[1,0.5]];portConstraint=eastwest;fontSize=24;" vertex="1" parent="9d-K32LOyO68Wn_iscek-73">
          <mxGeometry y="40" width="1014" height="40" as="geometry" />
        </mxCell>
        <mxCell id="9d-K32LOyO68Wn_iscek-81" value="&lt;font style=&quot;font-size: 24px;&quot;&gt;default&lt;/font&gt;" style="shape=partialRectangle;html=1;whiteSpace=wrap;connectable=0;overflow=hidden;fillColor=none;top=0;left=0;bottom=0;right=0;pointerEvents=1;fontSize=24;" vertex="1" parent="9d-K32LOyO68Wn_iscek-80">
          <mxGeometry width="203" height="40" as="geometry">
            <mxRectangle width="203" height="40" as="alternateBounds" />
          </mxGeometry>
        </mxCell>
        <mxCell id="9d-K32LOyO68Wn_iscek-82" value="varchar" style="shape=partialRectangle;html=1;whiteSpace=wrap;connectable=0;overflow=hidden;fillColor=none;top=0;left=0;bottom=0;right=0;pointerEvents=1;fontSize=24;" vertex="1" parent="9d-K32LOyO68Wn_iscek-80">
          <mxGeometry x="203" width="203" height="40" as="geometry">
            <mxRectangle width="203" height="40" as="alternateBounds" />
          </mxGeometry>
        </mxCell>
        <mxCell id="9d-K32LOyO68Wn_iscek-83" value="varchar" style="shape=partialRectangle;html=1;whiteSpace=wrap;connectable=0;overflow=hidden;fillColor=none;top=0;left=0;bottom=0;right=0;pointerEvents=1;fontSize=24;" vertex="1" parent="9d-K32LOyO68Wn_iscek-80">
          <mxGeometry x="406" width="203" height="40" as="geometry">
            <mxRectangle width="203" height="40" as="alternateBounds" />
          </mxGeometry>
        </mxCell>
        <mxCell id="9d-K32LOyO68Wn_iscek-84" value="varchar" style="shape=partialRectangle;html=1;whiteSpace=wrap;connectable=0;overflow=hidden;fillColor=none;top=0;left=0;bottom=0;right=0;pointerEvents=1;fontSize=24;" vertex="1" parent="9d-K32LOyO68Wn_iscek-80">
          <mxGeometry x="609" width="202" height="40" as="geometry">
            <mxRectangle width="202" height="40" as="alternateBounds" />
          </mxGeometry>
        </mxCell>
        <mxCell id="9d-K32LOyO68Wn_iscek-85" value="varchar" style="shape=partialRectangle;html=1;whiteSpace=wrap;connectable=0;overflow=hidden;fillColor=none;top=0;left=0;bottom=0;right=0;pointerEvents=1;fontSize=24;" vertex="1" parent="9d-K32LOyO68Wn_iscek-80">
          <mxGeometry x="811" width="203" height="40" as="geometry">
            <mxRectangle width="203" height="40" as="alternateBounds" />
          </mxGeometry>
        </mxCell>
        <mxCell id="9d-K32LOyO68Wn_iscek-86" style="shape=tableRow;horizontal=0;startSize=0;swimlaneHead=0;swimlaneBody=0;top=0;left=0;bottom=0;right=0;collapsible=0;dropTarget=0;fillColor=none;points=[[0,0.5],[1,0.5]];portConstraint=eastwest;fontSize=24;" vertex="1" parent="9d-K32LOyO68Wn_iscek-73">
          <mxGeometry y="80" width="1014" height="40" as="geometry" />
        </mxCell>
        <mxCell id="9d-K32LOyO68Wn_iscek-87" style="shape=partialRectangle;html=1;whiteSpace=wrap;connectable=0;overflow=hidden;fillColor=none;top=0;left=0;bottom=0;right=0;pointerEvents=1;fontSize=24;" vertex="1" parent="9d-K32LOyO68Wn_iscek-86">
          <mxGeometry width="203" height="40" as="geometry">
            <mxRectangle width="203" height="40" as="alternateBounds" />
          </mxGeometry>
        </mxCell>
        <mxCell id="9d-K32LOyO68Wn_iscek-88" style="shape=partialRectangle;html=1;whiteSpace=wrap;connectable=0;overflow=hidden;fillColor=none;top=0;left=0;bottom=0;right=0;pointerEvents=1;fontSize=24;" vertex="1" parent="9d-K32LOyO68Wn_iscek-86">
          <mxGeometry x="203" width="203" height="40" as="geometry">
            <mxRectangle width="203" height="40" as="alternateBounds" />
          </mxGeometry>
        </mxCell>
        <mxCell id="9d-K32LOyO68Wn_iscek-89" style="shape=partialRectangle;html=1;whiteSpace=wrap;connectable=0;overflow=hidden;fillColor=none;top=0;left=0;bottom=0;right=0;pointerEvents=1;fontSize=24;" vertex="1" parent="9d-K32LOyO68Wn_iscek-86">
          <mxGeometry x="406" width="203" height="40" as="geometry">
            <mxRectangle width="203" height="40" as="alternateBounds" />
          </mxGeometry>
        </mxCell>
        <mxCell id="9d-K32LOyO68Wn_iscek-90" value="sp1,sp2,sp3..." style="shape=partialRectangle;html=1;whiteSpace=wrap;connectable=0;overflow=hidden;fillColor=none;top=0;left=0;bottom=0;right=0;pointerEvents=1;fontSize=24;" vertex="1" parent="9d-K32LOyO68Wn_iscek-86">
          <mxGeometry x="609" width="202" height="40" as="geometry">
            <mxRectangle width="202" height="40" as="alternateBounds" />
          </mxGeometry>
        </mxCell>
        <mxCell id="9d-K32LOyO68Wn_iscek-91" value="rf1,rf2,rf3..." style="shape=partialRectangle;html=1;whiteSpace=wrap;connectable=0;overflow=hidden;fillColor=none;top=0;left=0;bottom=0;right=0;pointerEvents=1;fontSize=24;" vertex="1" parent="9d-K32LOyO68Wn_iscek-86">
          <mxGeometry x="811" width="203" height="40" as="geometry">
            <mxRectangle width="203" height="40" as="alternateBounds" />
          </mxGeometry>
        </mxCell>
        <mxCell id="9d-K32LOyO68Wn_iscek-92" value="&lt;font style=&quot;font-size: 36px;&quot;&gt;t_race_dashboard&lt;/font&gt;" style="text;html=1;strokeColor=none;fillColor=none;align=center;verticalAlign=middle;whiteSpace=wrap;rounded=0;" vertex="1" parent="1">
          <mxGeometry x="811" y="1080" width="443" height="30" as="geometry" />
        </mxCell>
        <mxCell id="9d-K32LOyO68Wn_iscek-93" value="" style="shape=table;startSize=0;container=1;collapsible=0;childLayout=tableLayout;" vertex="1" parent="1">
          <mxGeometry x="300" y="1370" width="1600" height="90" as="geometry" />
        </mxCell>
        <mxCell id="9d-K32LOyO68Wn_iscek-94" value="" style="shape=tableRow;horizontal=0;startSize=0;swimlaneHead=0;swimlaneBody=0;top=0;left=0;bottom=0;right=0;collapsible=0;dropTarget=0;fillColor=none;points=[[0,0.5],[1,0.5]];portConstraint=eastwest;" vertex="1" parent="9d-K32LOyO68Wn_iscek-93">
          <mxGeometry width="1600" height="45" as="geometry" />
        </mxCell>
        <mxCell id="9d-K32LOyO68Wn_iscek-95" value="&lt;span style=&quot;font-size: 24px;&quot;&gt;id&lt;/span&gt;" style="shape=partialRectangle;html=1;whiteSpace=wrap;connectable=0;overflow=hidden;fillColor=none;top=0;left=0;bottom=0;right=0;pointerEvents=1;" vertex="1" parent="9d-K32LOyO68Wn_iscek-94">
          <mxGeometry width="200" height="45" as="geometry">
            <mxRectangle width="200" height="45" as="alternateBounds" />
          </mxGeometry>
        </mxCell>
        <mxCell id="9d-K32LOyO68Wn_iscek-96" value="&lt;span style=&quot;font-size: 24px;&quot;&gt;racename&lt;/span&gt;" style="shape=partialRectangle;html=1;whiteSpace=wrap;connectable=0;overflow=hidden;fillColor=none;top=0;left=0;bottom=0;right=0;pointerEvents=1;" vertex="1" parent="9d-K32LOyO68Wn_iscek-94">
          <mxGeometry x="200" width="200" height="45" as="geometry">
            <mxRectangle width="200" height="45" as="alternateBounds" />
          </mxGeometry>
        </mxCell>
        <mxCell id="9d-K32LOyO68Wn_iscek-97" value="&lt;span style=&quot;font-size: 24px;&quot;&gt;gpxfilename&lt;/span&gt;" style="shape=partialRectangle;html=1;whiteSpace=wrap;connectable=0;overflow=hidden;fillColor=none;top=0;left=0;bottom=0;right=0;pointerEvents=1;" vertex="1" parent="9d-K32LOyO68Wn_iscek-94">
          <mxGeometry x="400" width="200" height="45" as="geometry">
            <mxRectangle width="200" height="45" as="alternateBounds" />
          </mxGeometry>
        </mxCell>
        <mxCell id="9d-K32LOyO68Wn_iscek-98" value="&lt;span style=&quot;font-size: 24px;&quot;&gt;straightspeed&lt;/span&gt;" style="shape=partialRectangle;html=1;whiteSpace=wrap;connectable=0;overflow=hidden;fillColor=none;top=0;left=0;bottom=0;right=0;pointerEvents=1;" vertex="1" parent="9d-K32LOyO68Wn_iscek-94">
          <mxGeometry x="600" width="200" height="45" as="geometry">
            <mxRectangle width="200" height="45" as="alternateBounds" />
          </mxGeometry>
        </mxCell>
        <mxCell id="9d-K32LOyO68Wn_iscek-99" value="&lt;span style=&quot;font-size: 24px;&quot;&gt;realspeed&lt;/span&gt;" style="shape=partialRectangle;html=1;whiteSpace=wrap;connectable=0;overflow=hidden;fillColor=none;top=0;left=0;bottom=0;right=0;pointerEvents=1;" vertex="1" parent="9d-K32LOyO68Wn_iscek-94">
          <mxGeometry x="800" width="200" height="45" as="geometry">
            <mxRectangle width="200" height="45" as="alternateBounds" />
          </mxGeometry>
        </mxCell>
        <mxCell id="9d-K32LOyO68Wn_iscek-100" value="&lt;span style=&quot;font-size: 24px;&quot;&gt;realdistance&lt;/span&gt;" style="shape=partialRectangle;html=1;whiteSpace=wrap;connectable=0;overflow=hidden;fillColor=none;top=0;left=0;bottom=0;right=0;pointerEvents=1;" vertex="1" parent="9d-K32LOyO68Wn_iscek-94">
          <mxGeometry x="1000" width="200" height="45" as="geometry">
            <mxRectangle width="200" height="45" as="alternateBounds" />
          </mxGeometry>
        </mxCell>
        <mxCell id="9d-K32LOyO68Wn_iscek-101" value="&lt;font style=&quot;font-size: 24px;&quot;&gt;avgelevation&lt;/font&gt;" style="shape=partialRectangle;html=1;whiteSpace=wrap;connectable=0;overflow=hidden;fillColor=none;top=0;left=0;bottom=0;right=0;pointerEvents=1;" vertex="1" parent="9d-K32LOyO68Wn_iscek-94">
          <mxGeometry x="1200" width="200" height="45" as="geometry">
            <mxRectangle width="200" height="45" as="alternateBounds" />
          </mxGeometry>
        </mxCell>
        <mxCell id="9d-K32LOyO68Wn_iscek-102" value="&lt;span style=&quot;font-size: 24px;&quot;&gt;routeefficiency&lt;/span&gt;" style="shape=partialRectangle;html=1;whiteSpace=wrap;connectable=0;overflow=hidden;fillColor=none;top=0;left=0;bottom=0;right=0;pointerEvents=1;" vertex="1" parent="9d-K32LOyO68Wn_iscek-94">
          <mxGeometry x="1400" width="200" height="45" as="geometry">
            <mxRectangle width="200" height="45" as="alternateBounds" />
          </mxGeometry>
        </mxCell>
        <mxCell id="9d-K32LOyO68Wn_iscek-103" value="" style="shape=tableRow;horizontal=0;startSize=0;swimlaneHead=0;swimlaneBody=0;top=0;left=0;bottom=0;right=0;collapsible=0;dropTarget=0;fillColor=none;points=[[0,0.5],[1,0.5]];portConstraint=eastwest;" vertex="1" parent="9d-K32LOyO68Wn_iscek-93">
          <mxGeometry y="45" width="1600" height="45" as="geometry" />
        </mxCell>
        <mxCell id="9d-K32LOyO68Wn_iscek-104" value="&lt;span style=&quot;font-size: 24px;&quot;&gt;default&lt;/span&gt;" style="shape=partialRectangle;html=1;whiteSpace=wrap;connectable=0;overflow=hidden;fillColor=none;top=0;left=0;bottom=0;right=0;pointerEvents=1;" vertex="1" parent="9d-K32LOyO68Wn_iscek-103">
          <mxGeometry width="200" height="45" as="geometry">
            <mxRectangle width="200" height="45" as="alternateBounds" />
          </mxGeometry>
        </mxCell>
        <mxCell id="9d-K32LOyO68Wn_iscek-105" value="&lt;span style=&quot;font-size: 24px;&quot;&gt;varchar&lt;/span&gt;" style="shape=partialRectangle;html=1;whiteSpace=wrap;connectable=0;overflow=hidden;fillColor=none;top=0;left=0;bottom=0;right=0;pointerEvents=1;" vertex="1" parent="9d-K32LOyO68Wn_iscek-103">
          <mxGeometry x="200" width="200" height="45" as="geometry">
            <mxRectangle width="200" height="45" as="alternateBounds" />
          </mxGeometry>
        </mxCell>
        <mxCell id="9d-K32LOyO68Wn_iscek-106" value="&lt;span style=&quot;font-size: 24px;&quot;&gt;varchar&lt;/span&gt;" style="shape=partialRectangle;html=1;whiteSpace=wrap;connectable=0;overflow=hidden;fillColor=none;top=0;left=0;bottom=0;right=0;pointerEvents=1;" vertex="1" parent="9d-K32LOyO68Wn_iscek-103">
          <mxGeometry x="400" width="200" height="45" as="geometry">
            <mxRectangle width="200" height="45" as="alternateBounds" />
          </mxGeometry>
        </mxCell>
        <mxCell id="9d-K32LOyO68Wn_iscek-107" value="&lt;span style=&quot;font-size: 24px;&quot;&gt;real&lt;/span&gt;" style="shape=partialRectangle;html=1;whiteSpace=wrap;connectable=0;overflow=hidden;fillColor=none;top=0;left=0;bottom=0;right=0;pointerEvents=1;" vertex="1" parent="9d-K32LOyO68Wn_iscek-103">
          <mxGeometry x="600" width="200" height="45" as="geometry">
            <mxRectangle width="200" height="45" as="alternateBounds" />
          </mxGeometry>
        </mxCell>
        <mxCell id="9d-K32LOyO68Wn_iscek-108" value="&lt;span style=&quot;font-size: 24px;&quot;&gt;real&lt;/span&gt;" style="shape=partialRectangle;html=1;whiteSpace=wrap;connectable=0;overflow=hidden;fillColor=none;top=0;left=0;bottom=0;right=0;pointerEvents=1;" vertex="1" parent="9d-K32LOyO68Wn_iscek-103">
          <mxGeometry x="800" width="200" height="45" as="geometry">
            <mxRectangle width="200" height="45" as="alternateBounds" />
          </mxGeometry>
        </mxCell>
        <mxCell id="9d-K32LOyO68Wn_iscek-109" value="&lt;span style=&quot;font-size: 24px;&quot;&gt;real&lt;/span&gt;" style="shape=partialRectangle;html=1;whiteSpace=wrap;connectable=0;overflow=hidden;fillColor=none;top=0;left=0;bottom=0;right=0;pointerEvents=1;" vertex="1" parent="9d-K32LOyO68Wn_iscek-103">
          <mxGeometry x="1000" width="200" height="45" as="geometry">
            <mxRectangle width="200" height="45" as="alternateBounds" />
          </mxGeometry>
        </mxCell>
        <mxCell id="9d-K32LOyO68Wn_iscek-110" value="&lt;span style=&quot;font-size: 24px;&quot;&gt;real&lt;/span&gt;" style="shape=partialRectangle;html=1;whiteSpace=wrap;connectable=0;overflow=hidden;fillColor=none;top=0;left=0;bottom=0;right=0;pointerEvents=1;" vertex="1" parent="9d-K32LOyO68Wn_iscek-103">
          <mxGeometry x="1200" width="200" height="45" as="geometry">
            <mxRectangle width="200" height="45" as="alternateBounds" />
          </mxGeometry>
        </mxCell>
        <mxCell id="9d-K32LOyO68Wn_iscek-111" value="&lt;span style=&quot;font-size: 24px;&quot;&gt;real&lt;/span&gt;" style="shape=partialRectangle;html=1;whiteSpace=wrap;connectable=0;overflow=hidden;fillColor=none;top=0;left=0;bottom=0;right=0;pointerEvents=1;" vertex="1" parent="9d-K32LOyO68Wn_iscek-103">
          <mxGeometry x="1400" width="200" height="45" as="geometry">
            <mxRectangle width="200" height="45" as="alternateBounds" />
          </mxGeometry>
        </mxCell>
        <mxCell id="9d-K32LOyO68Wn_iscek-112" value="&lt;font style=&quot;font-size: 36px;&quot;&gt;t_race_track_summaryFeatures&lt;/font&gt;" style="text;html=1;strokeColor=none;fillColor=none;align=center;verticalAlign=middle;whiteSpace=wrap;rounded=0;" vertex="1" parent="1">
          <mxGeometry x="760" y="1330" width="580" height="30" as="geometry" />
        </mxCell>
        <mxCell id="9d-K32LOyO68Wn_iscek-113" value="" style="shape=table;startSize=0;container=1;collapsible=0;childLayout=tableLayout;fontSize=24;" vertex="1" parent="1">
          <mxGeometry x="390" y="1550" width="1500" height="90" as="geometry" />
        </mxCell>
        <mxCell id="9d-K32LOyO68Wn_iscek-114" value="" style="shape=tableRow;horizontal=0;startSize=0;swimlaneHead=0;swimlaneBody=0;top=0;left=0;bottom=0;right=0;collapsible=0;dropTarget=0;fillColor=none;points=[[0,0.5],[1,0.5]];portConstraint=eastwest;fontSize=24;" vertex="1" parent="9d-K32LOyO68Wn_iscek-113">
          <mxGeometry width="1500" height="45" as="geometry" />
        </mxCell>
        <mxCell id="9d-K32LOyO68Wn_iscek-115" value="id" style="shape=partialRectangle;html=1;whiteSpace=wrap;connectable=0;overflow=hidden;fillColor=none;top=0;left=0;bottom=0;right=0;pointerEvents=1;fontSize=24;" vertex="1" parent="9d-K32LOyO68Wn_iscek-114">
          <mxGeometry width="300" height="45" as="geometry">
            <mxRectangle width="300" height="45" as="alternateBounds" />
          </mxGeometry>
        </mxCell>
        <mxCell id="9d-K32LOyO68Wn_iscek-116" value="racename" style="shape=partialRectangle;html=1;whiteSpace=wrap;connectable=0;overflow=hidden;fillColor=none;top=0;left=0;bottom=0;right=0;pointerEvents=1;fontSize=24;" vertex="1" parent="9d-K32LOyO68Wn_iscek-114">
          <mxGeometry x="300" width="300" height="45" as="geometry">
            <mxRectangle width="300" height="45" as="alternateBounds" />
          </mxGeometry>
        </mxCell>
        <mxCell id="9d-K32LOyO68Wn_iscek-117" value="gpxfilename_base" style="shape=partialRectangle;html=1;whiteSpace=wrap;connectable=0;overflow=hidden;fillColor=none;top=0;left=0;bottom=0;right=0;pointerEvents=1;fontSize=24;" vertex="1" parent="9d-K32LOyO68Wn_iscek-114">
          <mxGeometry x="600" width="290" height="45" as="geometry">
            <mxRectangle width="290" height="45" as="alternateBounds" />
          </mxGeometry>
        </mxCell>
        <mxCell id="9d-K32LOyO68Wn_iscek-118" value="gpxfilename_c&lt;span style=&quot;background-color: rgb(248, 249, 250); color: rgb(32, 33, 36); font-family: inherit; font-size: 28px; text-align: left;&quot;&gt;omparator&lt;/span&gt;" style="shape=partialRectangle;html=1;whiteSpace=wrap;connectable=0;overflow=hidden;fillColor=none;top=0;left=0;bottom=0;right=0;pointerEvents=1;fontSize=24;" vertex="1" parent="9d-K32LOyO68Wn_iscek-114">
          <mxGeometry x="890" width="370" height="45" as="geometry">
            <mxRectangle width="370" height="45" as="alternateBounds" />
          </mxGeometry>
        </mxCell>
        <mxCell id="9d-K32LOyO68Wn_iscek-119" value="avg_track_distance" style="shape=partialRectangle;html=1;whiteSpace=wrap;connectable=0;overflow=hidden;fillColor=none;top=0;left=0;bottom=0;right=0;pointerEvents=1;fontSize=24;" vertex="1" parent="9d-K32LOyO68Wn_iscek-114">
          <mxGeometry x="1260" width="240" height="45" as="geometry">
            <mxRectangle width="240" height="45" as="alternateBounds" />
          </mxGeometry>
        </mxCell>
        <mxCell id="9d-K32LOyO68Wn_iscek-120" value="" style="shape=tableRow;horizontal=0;startSize=0;swimlaneHead=0;swimlaneBody=0;top=0;left=0;bottom=0;right=0;collapsible=0;dropTarget=0;fillColor=none;points=[[0,0.5],[1,0.5]];portConstraint=eastwest;fontSize=24;" vertex="1" parent="9d-K32LOyO68Wn_iscek-113">
          <mxGeometry y="45" width="1500" height="45" as="geometry" />
        </mxCell>
        <mxCell id="9d-K32LOyO68Wn_iscek-121" value="default" style="shape=partialRectangle;html=1;whiteSpace=wrap;connectable=0;overflow=hidden;fillColor=none;top=0;left=0;bottom=0;right=0;pointerEvents=1;fontSize=24;" vertex="1" parent="9d-K32LOyO68Wn_iscek-120">
          <mxGeometry width="300" height="45" as="geometry">
            <mxRectangle width="300" height="45" as="alternateBounds" />
          </mxGeometry>
        </mxCell>
        <mxCell id="9d-K32LOyO68Wn_iscek-122" value="varchar" style="shape=partialRectangle;html=1;whiteSpace=wrap;connectable=0;overflow=hidden;fillColor=none;top=0;left=0;bottom=0;right=0;pointerEvents=1;fontSize=24;" vertex="1" parent="9d-K32LOyO68Wn_iscek-120">
          <mxGeometry x="300" width="300" height="45" as="geometry">
            <mxRectangle width="300" height="45" as="alternateBounds" />
          </mxGeometry>
        </mxCell>
        <mxCell id="9d-K32LOyO68Wn_iscek-123" value="varchar" style="shape=partialRectangle;html=1;whiteSpace=wrap;connectable=0;overflow=hidden;fillColor=none;top=0;left=0;bottom=0;right=0;pointerEvents=1;fontSize=24;" vertex="1" parent="9d-K32LOyO68Wn_iscek-120">
          <mxGeometry x="600" width="290" height="45" as="geometry">
            <mxRectangle width="290" height="45" as="alternateBounds" />
          </mxGeometry>
        </mxCell>
        <mxCell id="9d-K32LOyO68Wn_iscek-124" value="varchar" style="shape=partialRectangle;html=1;whiteSpace=wrap;connectable=0;overflow=hidden;fillColor=none;top=0;left=0;bottom=0;right=0;pointerEvents=1;fontSize=24;" vertex="1" parent="9d-K32LOyO68Wn_iscek-120">
          <mxGeometry x="890" width="370" height="45" as="geometry">
            <mxRectangle width="370" height="45" as="alternateBounds" />
          </mxGeometry>
        </mxCell>
        <mxCell id="9d-K32LOyO68Wn_iscek-125" value="real" style="shape=partialRectangle;html=1;whiteSpace=wrap;connectable=0;overflow=hidden;fillColor=none;top=0;left=0;bottom=0;right=0;pointerEvents=1;fontSize=24;" vertex="1" parent="9d-K32LOyO68Wn_iscek-120">
          <mxGeometry x="1260" width="240" height="45" as="geometry">
            <mxRectangle width="240" height="45" as="alternateBounds" />
          </mxGeometry>
        </mxCell>
        <mxCell id="9d-K32LOyO68Wn_iscek-126" value="&lt;font style=&quot;font-size: 36px;&quot;&gt;t_race_tracks_routeSimilarity&lt;/font&gt;" style="text;html=1;strokeColor=none;fillColor=none;align=center;verticalAlign=middle;whiteSpace=wrap;rounded=0;" vertex="1" parent="1">
          <mxGeometry x="750" y="1510" width="580" height="30" as="geometry" />
        </mxCell>
      </root>
    </mxGraphModel>
  </diagram>
  <diagram id="bvt2462yWClycQfQEUJP" name="api_workflow">
    <mxGraphModel dx="1600" dy="775" grid="1" gridSize="10" guides="1" tooltips="1" connect="1" arrows="1" fold="1" page="1" pageScale="1" pageWidth="827" pageHeight="1169" math="0" shadow="0">
      <root>
        <mxCell id="0" />
        <mxCell id="1" parent="0" />
        <mxCell id="NpvFCPLjzX6-AdWZAAtz-1" value="&lt;font style=&quot;font-size: 24px;&quot;&gt;get : all race&lt;/font&gt;" style="rounded=1;whiteSpace=wrap;html=1;" vertex="1" parent="1">
          <mxGeometry x="260" y="340" width="190" height="60" as="geometry" />
        </mxCell>
        <mxCell id="NpvFCPLjzX6-AdWZAAtz-2" value="" style="endArrow=classic;html=1;rounded=0;exitX=0.5;exitY=1;exitDx=0;exitDy=0;" edge="1" parent="1" source="NpvFCPLjzX6-AdWZAAtz-1" target="NpvFCPLjzX6-AdWZAAtz-3">
          <mxGeometry width="50" height="50" relative="1" as="geometry">
            <mxPoint x="550" y="670" as="sourcePoint" />
            <mxPoint x="355" y="470" as="targetPoint" />
          </mxGeometry>
        </mxCell>
        <mxCell id="NpvFCPLjzX6-AdWZAAtz-3" value="&lt;span style=&quot;font-size: 24px;&quot;&gt;Post : race.rank&lt;/span&gt;" style="rounded=1;whiteSpace=wrap;html=1;" vertex="1" parent="1">
          <mxGeometry x="260" y="640" width="190" height="60" as="geometry" />
        </mxCell>
        <mxCell id="NpvFCPLjzX6-AdWZAAtz-4" value="Post : race.record.text" style="rounded=1;whiteSpace=wrap;html=1;fontSize=24;" vertex="1" parent="1">
          <mxGeometry x="220" y="970" width="270" height="60" as="geometry" />
        </mxCell>
        <mxCell id="NpvFCPLjzX6-AdWZAAtz-5" value="" style="endArrow=classic;html=1;rounded=0;fontSize=24;exitX=0.5;exitY=1;exitDx=0;exitDy=0;" edge="1" parent="1" source="NpvFCPLjzX6-AdWZAAtz-3" target="NpvFCPLjzX6-AdWZAAtz-4">
          <mxGeometry width="50" height="50" relative="1" as="geometry">
            <mxPoint x="550" y="660" as="sourcePoint" />
            <mxPoint x="600" y="610" as="targetPoint" />
          </mxGeometry>
        </mxCell>
        <mxCell id="NpvFCPLjzX6-AdWZAAtz-6" value="raceid,racename,raceinfo" style="ellipse;shape=cloud;whiteSpace=wrap;html=1;fontSize=24;" vertex="1" parent="1">
          <mxGeometry x="430" y="150" width="430" height="250" as="geometry" />
        </mxCell>
        <mxCell id="NpvFCPLjzX6-AdWZAAtz-7" value="rank,racerecordid,arrivaltime" style="ellipse;shape=cloud;whiteSpace=wrap;html=1;fontSize=24;" vertex="1" parent="1">
          <mxGeometry x="480" y="540" width="430" height="250" as="geometry" />
        </mxCell>
        <mxCell id="NpvFCPLjzX6-AdWZAAtz-8" value="racerecordid,rawdata" style="ellipse;shape=cloud;whiteSpace=wrap;html=1;fontSize=24;" vertex="1" parent="1">
          <mxGeometry x="490" y="870" width="430" height="250" as="geometry" />
        </mxCell>
      </root>
    </mxGraphModel>
  </diagram>
</mxfile>
